<svg width="190" height="40" viewBox="0 0 190 40" fill="none" xmlns="http://www.w3.org/2000/svg">
<path d="M69.2899 22H62.7899L61.5499 25H58.2299L64.4699 11H67.6699L73.9299 25H70.5299L69.2899 22ZM68.2699 19.54L66.0499 14.18L63.8299 19.54H68.2699ZM75.5824 11H81.9424C83.4624 11 84.8024 11.2933 85.9624 11.88C87.1357 12.4533 88.0424 13.2667 88.6824 14.32C89.3357 15.3733 89.6624 16.6 89.6624 18C89.6624 19.4 89.3357 20.6267 88.6824 21.68C88.0424 22.7333 87.1357 23.5533 85.9624 24.14C84.8024 24.7133 83.4624 25 81.9424 25H75.5824V11ZM81.7824 22.34C83.1824 22.34 84.2957 21.9533 85.1224 21.18C85.9624 20.3933 86.3824 19.3333 86.3824 18C86.3824 16.6667 85.9624 15.6133 85.1224 14.84C84.2957 14.0533 83.1824 13.66 81.7824 13.66H78.8224V22.34H81.7824ZM101.226 25L98.5259 21.1H98.3659H95.5459V25H92.3059V11H98.3659C99.6059 11 100.679 11.2067 101.586 11.62C102.506 12.0333 103.213 12.62 103.706 13.38C104.199 14.14 104.446 15.04 104.446 16.08C104.446 17.12 104.193 18.02 103.686 18.78C103.193 19.5267 102.486 20.1 101.566 20.5L104.706 25H101.226ZM101.166 16.08C101.166 15.2933 100.913 14.6933 100.406 14.28C99.8992 13.8533 99.1592 13.64 98.1859 13.64H95.5459V18.52H98.1859C99.1592 18.52 99.8992 18.3067 100.406 17.88C100.913 17.4533 101.166 16.8533 101.166 16.08ZM120.053 11V25H117.393L110.413 16.5V25H107.213V11H109.893L116.853 19.5V11H120.053ZM132.785 22H126.285L125.045 25H121.725L127.965 11H131.165L137.425 25H134.025L132.785 22ZM131.765 19.54L129.545 14.18L127.325 19.54H131.765ZM139.078 11H142.318V22.36H149.338V25H139.078V11ZM151.348 11H154.588V25H151.348V11ZM170.951 11V25H168.291L161.311 16.5V25H158.111V11H160.791L167.751 19.5V11H170.951ZM185.303 22.4V25H174.463V11H185.043V13.6H177.683V16.64H184.183V19.16H177.683V22.4H185.303Z" fill="black"/>
<path d="M18.7154 9.91147L34.9234 32.4778H2.50739L18.7154 9.91147Z" fill="black"/>
<path d="M23.528 11.5044L31.7271 0L54.5421 32.5664H38.6785L23.528 11.5044Z" fill="black"/>
</svg>
